<svg width="26" height="26" viewBox="0 0 26 26" fill="none" xmlns="http://www.w3.org/2000/svg">
<path d="M23.8008 19.8578C23.8008 20.2478 23.7141 20.6487 23.53 21.0387C23.3458 21.4287 23.1075 21.797 22.7933 22.1437C22.2625 22.7287 21.6775 23.1512 21.0166 23.422C20.3666 23.6928 19.6625 23.8337 18.9041 23.8337C17.7991 23.8337 16.6183 23.5737 15.3725 23.0428C14.1266 22.512 12.8808 21.797 11.6458 20.8978C10.4 19.9878 9.21913 18.9803 8.09246 17.8645C6.97663 16.7378 5.96913 15.557 5.06996 14.322C4.18163 13.087 3.46663 11.852 2.94663 10.6278C2.42663 9.39283 2.16663 8.21199 2.16663 7.08533C2.16663 6.34866 2.29663 5.64449 2.55663 4.99449C2.81663 4.33366 3.22829 3.72699 3.80246 3.18533C4.49579 2.50283 5.25413 2.16699 6.05579 2.16699C6.35913 2.16699 6.66246 2.23199 6.93329 2.36199C7.21496 2.49199 7.46413 2.68699 7.65913 2.96866L10.1725 6.51116C10.3675 6.78199 10.5083 7.03116 10.6058 7.26949C10.7033 7.49699 10.7575 7.72449 10.7575 7.93033C10.7575 8.19033 10.6816 8.45033 10.53 8.69949C10.3891 8.94866 10.1833 9.20866 9.92329 9.46866L9.09996 10.3245C8.98079 10.4437 8.92663 10.5845 8.92663 10.7578C8.92663 10.8445 8.93746 10.9203 8.95913 11.007C8.99163 11.0937 9.02413 11.1587 9.04579 11.2237C9.24079 11.5812 9.57663 12.047 10.0533 12.6103C10.5408 13.1737 11.0608 13.7478 11.6241 14.322C12.2091 14.8962 12.7725 15.427 13.3466 15.9145C13.91 16.3912 14.3758 16.7162 14.7441 16.9112C14.7983 16.9328 14.8633 16.9653 14.9391 16.9978C15.0258 17.0303 15.1125 17.0412 15.21 17.0412C15.3941 17.0412 15.535 16.9762 15.6541 16.857L16.4775 16.0445C16.7483 15.7737 17.0083 15.5678 17.2575 15.4378C17.5066 15.2862 17.7558 15.2103 18.0266 15.2103C18.2325 15.2103 18.4491 15.2537 18.6875 15.3512C18.9258 15.4487 19.175 15.5895 19.4458 15.7737L23.0316 18.3195C23.3133 18.5145 23.5083 18.742 23.6275 19.0128C23.7358 19.2837 23.8008 19.5545 23.8008 19.8578Z" stroke="#1C1C1C" stroke-width="1.5" stroke-miterlimit="10"/>
</svg>
