<svg width="42.615234" height="59.718750" viewBox="0 0 42.6152 59.7188" fill="none" xmlns="http://www.w3.org/2000/svg" xmlns:xlink="http://www.w3.org/1999/xlink">
	<desc>
			Created with Pixso.
	</desc>
	<defs/>
	<path id="Б" d="M7.91 6.48L36.7 6.48L36.7 0L0 0L0 59.71L22.88 59.71Q31.56 59.56 36.77 55.23Q37.05 54.99 37.32 54.75Q38.99 53.23 40.13 51.39Q42.61 47.4 42.61 41.87Q42.61 36.28 40.07 32.32Q38.96 30.58 37.36 29.16Q32.11 24.48 22.76 24.36L7.91 24.36L7.91 6.48ZM7.91 53.27L7.91 30.84L22.64 30.84Q28.42 30.92 31.56 33.83Q32.35 34.57 32.94 35.44Q34.69 38.02 34.69 41.79Q34.69 45.66 32.92 48.37Q32.29 49.34 31.43 50.16Q31.19 50.39 30.94 50.6Q27.74 53.27 22.31 53.27L7.91 53.27Z" fill="#D4D4D4" fill-opacity="1.000000" fill-rule="evenodd"/>
</svg>
