<svg width="45.978516" height="61.359375" viewBox="0 0 45.9785 61.3594" fill="none" xmlns="http://www.w3.org/2000/svg" xmlns:xlink="http://www.w3.org/1999/xlink">
	<desc>
			Created with Pixso.
	</desc>
	<defs/>
	<path id="ะก" d="M40.54 54.67Q45.02 49.73 45.97 41.58L38.06 41.58Q36.91 48.97 33.4 51.94Q29.9 54.91 23.33 54.91Q19.36 54.91 16.35 53.21Q13.82 51.79 11.97 49.17Q7.91 43.43 7.91 33.71L7.91 27.93Q7.91 17.63 12.2 12.05Q13.96 9.76 16.27 8.41Q19.58 6.48 24.03 6.48Q29.87 6.48 33.25 9.36Q33.43 9.51 33.61 9.67Q37.03 12.87 38.06 20.01L45.97 20.01Q45.17 12.01 40.88 6.97Q40.14 6.09 39.29 5.31Q38.4 4.49 37.43 3.8Q32.08 0 24.03 0Q17.87 0 12.99 2.48Q12.17 2.9 11.4 3.38Q10.06 4.21 8.87 5.21Q5.21 8.31 2.97 13.08Q0 19.4 0 27.72L0 33.46Q0 45.84 6.04 53.36Q6.2 53.57 6.37 53.77Q8.98 56.87 12.29 58.7Q17.08 61.35 23.33 61.35Q32.23 61.35 37.91 57.08Q38.46 56.66 38.98 56.21Q39.81 55.48 40.54 54.67Z" fill="#D4D4D4" fill-opacity="1.000000" fill-rule="evenodd"/>
</svg>
