<svg width="159" height="58" viewBox="0 0 159 58" fill="none" xmlns="http://www.w3.org/2000/svg">
<g clip-path="url(#clip0_108_338)">
<path d="M117.359 14.3184H117.249V43.7658H117.359V14.3184Z" fill="#D0D0D0"/>
<mask id="mask0_108_338" style="mask-type:luminance" maskUnits="userSpaceOnUse" x="124" y="13" width="21" height="28">
<path d="M127.441 16.4774C125.581 18.2161 124.637 20.4317 124.637 23.0679C124.637 25.2555 125.276 27.3028 126.525 29.1819C127.608 30.7804 129.494 32.8277 132.354 35.4359L136.794 39.6427C137.599 40.2598 138.765 40.1196 139.404 39.3904C140.098 38.6051 140.042 37.3991 139.293 36.6699C136.989 34.5666 137.35 34.8751 135.047 32.7717C132.659 30.6122 130.993 28.7893 130.077 27.3308C129.217 25.9847 128.772 24.5825 128.772 23.1802C128.772 21.5535 129.328 20.2635 130.438 19.2258C131.604 18.1601 132.937 17.6553 134.575 17.6553C136.184 17.6553 137.655 18.0759 138.904 18.9173C139.682 19.4782 140.487 20.2354 141.319 21.217C141.319 21.217 141.319 21.217 141.292 21.217C141.514 21.5255 141.902 22.1145 142.069 22.9838C142.263 24.1056 141.93 25.0031 141.764 25.3396C142.402 25.3396 143.289 25.0311 144.011 24.2458C144.733 23.4326 145.649 20.4317 143.678 18.0759C143.178 17.487 142.68 16.7859 141.125 15.7482C139.265 14.5142 136.961 13.8691 134.352 13.8691C131.632 13.8691 129.3 14.7666 127.441 16.4774Z" fill="white"/>
</mask>
<g mask="url(#mask0_108_338)">
<path d="M145.677 13.8691H124.637V40.2317H145.677V13.8691Z" fill="url(#paint0_linear_108_338)"/>
</g>
<mask id="mask1_108_338" style="mask-type:luminance" maskUnits="userSpaceOnUse" x="124" y="13" width="21" height="13">
<path d="M127.441 16.4774C125.581 18.2161 124.637 20.4317 124.637 23.0679C124.637 24.0215 124.748 24.947 124.998 25.8445C125.081 24.8629 125.359 23.1802 126.497 21.5255C129.161 17.6833 134.047 17.6553 134.575 17.6553C136.184 17.6553 137.655 18.0759 138.904 18.9173C139.682 19.4782 140.487 20.2354 141.319 21.217C141.319 21.217 141.319 21.217 141.292 21.217C141.514 21.5255 141.902 22.1145 142.069 22.9838C142.263 24.1056 141.93 25.0031 141.764 25.3396C142.402 25.3396 143.289 25.0311 144.011 24.2458C144.733 23.4326 145.649 20.4317 143.678 18.0759C143.178 17.487 142.68 16.7859 141.125 15.7482C139.265 14.5142 136.961 13.8691 134.352 13.8691C131.632 13.8691 129.3 14.7666 127.441 16.4774Z" fill="white"/>
</mask>
<g mask="url(#mask1_108_338)">
<path d="M145.677 13.8691H124.637V25.8445H145.677V13.8691Z" fill="url(#paint1_linear_108_338)"/>
</g>
<mask id="mask2_108_338" style="mask-type:luminance" maskUnits="userSpaceOnUse" x="138" y="13" width="21" height="32">
<path d="M149.229 13.8691C146.592 13.8691 144.316 14.4861 142.456 15.7482C141.929 16.1127 141.513 16.4213 141.179 16.7298C141.068 16.8139 140.957 16.9261 140.874 17.0102C140.458 17.4029 140.18 17.7675 139.93 18.0759C137.96 20.4037 138.849 23.4326 139.597 24.2458C140.319 25.0311 141.207 25.3396 141.846 25.3396C141.707 25.0031 141.346 24.1056 141.54 22.9838C141.679 22.1145 142.096 21.5255 142.318 21.217C143.123 20.2354 143.928 19.4501 144.733 18.9173C145.982 18.0759 147.452 17.6553 149.062 17.6553C150.673 17.6553 152.033 18.1601 153.199 19.2258C154.336 20.2635 154.863 21.5535 154.863 23.1802C154.863 24.5544 154.419 25.9567 153.56 27.3309C152.644 28.7611 150.978 30.5841 148.591 32.7717L140.596 40.8206C140.596 40.8206 140.596 40.8206 140.569 40.8487C140.235 41.1852 140.013 41.662 140.013 42.1948C140.013 43.2606 140.874 44.13 141.929 44.13C142.429 44.13 142.901 43.9337 143.234 43.5972L143.262 43.569L143.289 43.5411L151.283 35.4641C154.142 32.8558 156.029 30.8085 157.112 29.2099C158.361 27.3309 159 25.2555 159 23.0961C159 20.4598 158.056 18.2442 156.196 16.5054C154.308 14.7666 151.977 13.8691 149.229 13.8691Z" fill="white"/>
</mask>
<g mask="url(#mask2_108_338)">
<path d="M128.328 17.4305L140.403 50.9446L168.577 40.5678L156.501 7.05371L128.328 17.4305Z" fill="white"/>
</g>
<path d="M14.6002 14.3182C10.9085 14.3182 7.71647 15.5802 5.02403 17.9921C4.80198 18.1884 4.57992 18.3847 4.35786 18.609C1.47113 21.4417 0 24.9473 0 29.0138C0 33.0524 1.49888 36.53 4.30235 39.3907C6.24534 41.3537 8.46592 42.672 10.9918 43.3169C12.1299 43.5974 13.3234 43.7376 14.5725 43.7376C15.8215 43.7376 17.0429 43.5974 18.1809 43.3169C18.514 43.2328 18.8193 43.1487 19.1247 43.0365C19.2357 42.9804 19.3744 42.9524 19.4855 42.8963H19.5132C21.2342 42.2793 22.7886 41.3257 24.232 40.0076L28.7286 43.2889L29.145 43.5974V14.29L24.232 18.0201C21.5117 15.5802 18.2919 14.3182 14.6002 14.3182ZM20.79 35.296C19.4577 36.6422 17.9033 37.4555 16.1547 37.7359C15.6551 37.8201 15.1553 37.8761 14.6002 37.8761C12.1576 37.8761 10.1036 37.0629 8.38264 35.324C6.66171 33.5853 5.85675 31.4819 5.85675 29.042C5.85675 26.7982 6.52291 24.8632 7.96629 23.2084C8.10507 23.0402 8.2161 22.9 8.38264 22.7317C10.1036 20.9929 12.1576 20.1796 14.6002 20.1796C17.0151 20.1796 19.0691 21.0209 20.79 22.7598C22.511 24.4985 23.3437 26.5739 23.3437 29.0138C23.3437 31.4819 22.511 33.5571 20.79 35.296Z" fill="white"/>
<path d="M67.7278 43.0367C69.1434 43.5134 70.6423 43.7658 72.2245 43.7658C73.7789 43.7658 75.3055 43.5134 76.7489 43.0367C77.8036 42.7002 78.8029 42.2234 79.8021 41.6063C82.0504 40.2041 83.8269 38.3251 85.076 35.9693L85.6311 34.9316L80.5515 32.0429L79.9687 33.1647C79.2192 34.595 78.1645 35.7729 76.7767 36.6143C75.3887 37.4557 73.8899 37.8763 72.2522 37.8763C70.8366 37.8763 69.5042 37.5959 68.2829 36.9228L80.8291 25.7328L85.076 21.9466L84.5486 21.0773C83.2718 19.0299 81.4675 17.4313 79.3858 16.2254C77.8591 15.3559 76.2214 14.739 74.5006 14.5147C73.7789 14.3743 73.0294 14.3184 72.28 14.3184C71.8913 14.3184 71.5305 14.3464 71.1419 14.3464C67.6445 14.5988 64.5912 16.0291 62.0376 18.5812C59.1786 21.4418 57.7075 24.9475 57.7075 29.014C57.7075 31.3699 58.2349 33.5293 59.2064 35.4925C59.9003 36.8947 60.8717 38.1849 62.0099 39.3628C63.6752 41.1015 65.5905 42.3355 67.7278 43.0367ZM63.592 27.6398C63.8418 25.7607 64.619 24.1341 66.0068 22.7319C66.2567 22.5076 66.4788 22.2552 66.7285 22.0588H66.7563C68.3107 20.7687 70.1427 20.1798 72.2245 20.1798C73.8898 20.1798 75.4165 20.6004 76.8043 21.4699L64.286 32.716C63.7585 31.5381 63.5088 30.3322 63.5088 29.014C63.5088 28.5373 63.5365 28.0886 63.592 27.6398Z" fill="white"/>
<path d="M49.1577 43.6814H54.9867V26.4055C54.9867 23.2644 53.9319 20.516 51.7113 18.3004C49.5185 16.0848 46.7984 15.0191 43.6618 15.0191C40.9138 15.0191 38.4712 15.8885 36.4172 17.6834L32.3647 14.374V43.7374H38.1937V26.4055C38.1937 24.8629 38.721 23.5729 39.7757 22.5071C40.8583 21.4135 42.1351 20.9086 43.634 20.9086C45.1607 20.9086 46.4374 21.4135 47.52 22.4791C48.6303 23.5729 49.1022 24.8911 49.1022 26.4335V43.6814H49.1577Z" fill="white"/>
<path d="M109.974 43.7379L100.536 26.9387L107.614 14.3184H100.73L97.0665 20.8248L93.4025 14.3184H86.4911L93.6524 26.9387L84.1317 43.7379H91.0433L97.0665 33.0526L103.062 43.7379H109.974Z" fill="white"/>
</g>
<defs>
<linearGradient id="paint0_linear_108_338" x1="124.615" y1="27.0696" x2="144.857" y2="27.0696" gradientUnits="userSpaceOnUse">
<stop stop-color="#E0E0E0"/>
<stop offset="0.45" stop-color="#F0F0F0"/>
<stop offset="1" stop-color="white"/>
</linearGradient>
<linearGradient id="paint1_linear_108_338" x1="124.615" y1="19.8897" x2="144.857" y2="19.8897" gradientUnits="userSpaceOnUse">
<stop stop-color="#E7E7E7"/>
<stop offset="0.55" stop-color="#F3F3F3"/>
<stop offset="1" stop-color="white"/>
</linearGradient>
<clipPath id="clip0_108_338">
<rect width="159" height="58" fill="white"/>
</clipPath>
</defs>
</svg>
