<svg width="40.646484" height="59.718750" viewBox="0 0 40.6465 59.7188" fill="none" xmlns="http://www.w3.org/2000/svg" xmlns:xlink="http://www.w3.org/1999/xlink">
	<desc>
			Created with Pixso.
	</desc>
	<defs/>
	<path id="B" d="M0 0L0 59.71L20.71 59.71Q30.22 59.71 35.43 55.12Q36.94 53.79 38.01 52.17Q40.64 48.2 40.64 42.49Q40.64 38.48 39 35.32Q38.5 34.34 37.83 33.44Q36.84 32.11 35.6 31.07Q33.32 29.17 30.18 28.3Q33.81 26.74 36.09 24.04Q36.39 23.69 36.66 23.31Q37.59 22.06 38.15 20.67Q39.04 18.47 39.04 15.91Q39.04 9.76 36.05 5.96Q35.22 4.9 34.14 4.01Q29.24 0 19.52 0L0 0ZM19.76 25.47L7.87 25.47L7.87 6.48L19.52 6.48Q25.38 6.48 28.25 8.71Q28.67 9.03 29.03 9.41Q31.13 11.66 31.13 15.87Q31.13 18.65 29.9 20.71Q29.18 21.92 28.03 22.88Q27.96 22.94 27.88 23Q24.81 25.47 19.76 25.47ZM7.87 53.27L7.87 31.78L21 31.78Q27.35 31.78 30.26 34.95Q32.73 37.63 32.73 42.57Q32.73 46.23 31.03 48.73Q30.4 49.66 29.55 50.42Q29.37 50.58 29.18 50.74Q26.06 53.27 20.87 53.27L7.87 53.27Z" fill="#D4D4D4" fill-opacity="1.000000" fill-rule="evenodd"/>
</svg>
